<svg width="54" height="54" viewBox="0 0 54 54" fill="none" xmlns="http://www.w3.org/2000/svg">
<path fill-rule="evenodd" clip-rule="evenodd" d="M7.137 7.13637C4.5 9.77112 4.5 14.0146 4.5 22.4994V31.4994C4.5 39.9841 4.5 44.2276 7.137 46.8624C9.774 49.4971 14.0153 49.4994 22.5 49.4994H31.5C39.9847 49.4994 44.2282 49.4994 46.863 46.8624C49.4977 44.2254 49.5 39.9841 49.5 31.4994V22.4994C49.5 16.1094 49.5 12.1269 48.375 9.42462V38.2494C47.3053 38.2495 46.2461 38.039 45.2578 37.6298C44.2695 37.2205 43.3715 36.6207 42.615 35.8644L40.923 34.1724C39.2985 32.5479 38.4885 31.7379 37.5683 31.3959C36.5566 31.0197 35.4434 31.0197 34.4318 31.3959C33.5115 31.7379 32.6992 32.5479 31.0793 34.1724L30.8228 34.4266C29.5065 35.7429 28.8472 36.4021 28.1475 36.5236C27.604 36.6194 27.0443 36.5121 26.5747 36.2221C25.9718 35.8486 25.605 34.9914 24.8693 33.2791L24.75 33.0001C23.0625 29.0626 22.221 27.0961 20.7495 26.3581C20.0085 25.9866 19.1792 25.827 18.3532 25.8969C16.713 26.0364 15.201 27.5506 12.1725 30.5769L7.875 34.8744V6.49512C7.614 6.68862 7.368 6.90237 7.137 7.13637Z" fill="#6D6D6F"/>
<path d="M6.75 22.5C6.75 18.1935 6.7545 15.1897 7.0605 12.924C7.35525 10.7235 7.8975 9.558 8.7255 8.72775C9.558 7.89525 10.7235 7.35525 12.924 7.0605C15.1897 6.7545 18.1935 6.75 22.5 6.75H31.5C35.8065 6.75 38.8103 6.7545 41.076 7.0605C43.2765 7.35525 44.442 7.8975 45.2723 8.7255C46.1048 9.558 46.6448 10.7235 46.9418 12.924C47.2455 15.1897 47.25 18.1935 47.25 22.5V31.5C47.25 35.8065 47.2455 38.8103 46.9418 41.076C46.6448 43.2765 46.1025 44.442 45.2723 45.2723C44.442 46.1048 43.2765 46.6448 41.076 46.9418C38.8103 47.2455 35.8065 47.25 31.5 47.25H22.5C18.1935 47.25 15.1897 47.2455 12.924 46.9418C10.7235 46.6448 9.558 46.1025 8.72775 45.2723C7.89525 44.442 7.35525 43.2765 7.0605 41.076C6.7545 38.8103 6.75 35.8065 6.75 31.5V22.5Z" stroke="#6D6D6F" stroke-width="4.5"/>
<path d="M33.75 24.75C36.2353 24.75 38.25 22.7353 38.25 20.25C38.25 17.7647 36.2353 15.75 33.75 15.75C31.2647 15.75 29.25 17.7647 29.25 20.25C29.25 22.7353 31.2647 24.75 33.75 24.75Z" fill="#6D6D6F"/>
</svg>
